<svg width="18" height="20" viewBox="0 0 18 20" fill="none" xmlns="http://www.w3.org/2000/svg">
<path d="M16.0802 10.42L9.90016 16.61C9.08998 17.33 8.03531 17.7132 6.95188 17.6814C5.86846 17.6495 4.83816 17.2048 4.07173 16.4384C3.30531 15.672 2.86067 14.6417 2.82878 13.5582C2.79688 12.4748 3.18014 11.4202 3.90016 10.61L11.9002 2.60997C12.3778 2.15627 13.0114 1.9033 13.6702 1.9033C14.3289 1.9033 14.9625 2.15627 15.4402 2.60997C15.9055 3.08156 16.1664 3.71744 16.1664 4.37997C16.1664 5.0425 15.9055 5.67838 15.4402 6.14997L8.54016 13.04C8.47187 13.1135 8.38977 13.1729 8.29854 13.2147C8.2073 13.2565 8.10873 13.2799 8.00844 13.2836C7.90816 13.2874 7.80812 13.2713 7.71405 13.2363C7.61997 13.2014 7.5337 13.1483 7.46016 13.08C7.38662 13.0117 7.32725 12.9296 7.28544 12.8383C7.24363 12.7471 7.2202 12.6485 7.21648 12.5483C7.21277 12.448 7.22885 12.3479 7.26379 12.2539C7.29874 12.1598 7.35187 12.0735 7.42016 12L12.5502 6.87997C12.7385 6.69166 12.8443 6.43627 12.8443 6.16997C12.8443 5.90367 12.7385 5.64827 12.5502 5.45997C12.3619 5.27166 12.1065 5.16588 11.8402 5.16588C11.5739 5.16588 11.3185 5.27166 11.1302 5.45997L6.00016 10.6C5.74346 10.8547 5.53973 11.1577 5.40069 11.4915C5.26166 11.8253 5.19008 12.1834 5.19008 12.545C5.19008 12.9066 5.26166 13.2646 5.40069 13.5984C5.53973 13.9323 5.74346 14.2353 6.00016 14.49C6.52453 14.9895 7.22097 15.2681 7.94516 15.2681C8.66935 15.2681 9.36579 14.9895 9.89016 14.49L16.7802 7.58997C17.575 6.73692 18.0078 5.60864 17.9872 4.44283C17.9666 3.27703 17.4944 2.16472 16.6699 1.34024C15.8454 0.515759 14.7331 0.0434872 13.5673 0.0229179C12.4015 0.00234858 11.2732 0.435088 10.4202 1.22997L2.42016 9.22997C1.34136 10.4248 0.765188 11.9898 0.811693 13.5989C0.858198 15.2081 1.52379 16.7372 2.6698 17.8677C3.8158 18.9983 5.35384 19.643 6.96344 19.6677C8.57305 19.6923 10.1301 19.0949 11.3102 18L17.5002 11.82C17.5934 11.7267 17.6674 11.616 17.7178 11.4942C17.7683 11.3724 17.7943 11.2418 17.7943 11.11C17.7943 10.9781 17.7683 10.8475 17.7178 10.7257C17.6674 10.6039 17.5934 10.4932 17.5002 10.4C17.4069 10.3067 17.2962 10.2328 17.1744 10.1823C17.0526 10.1318 16.922 10.1059 16.7902 10.1059C16.6583 10.1059 16.5277 10.1318 16.4059 10.1823C16.2841 10.2328 16.1734 10.3067 16.0802 10.4V10.42Z" fill="#212329"/>
</svg>
